<svg xmlns="http://www.w3.org/2000/svg" width="140" height="123" fill="none"><path fill="#FA84E0" d="M23.687 61.343h-2.67l49.017 49.017 40.255-40.254h12.391L70.034 122.75 10.817 63.602a34.7 34.7 0 0 1-4.245-5.134 36.5 36.5 0 0 1-3.217-5.888H19.99l19.374-19.305 30.67 30.601 21.907-21.838 10.612 10.542h24.303a30 30 0 0 0 3.354-7.393 27.9 27.9 0 0 0 1.164-8.01q0-5.956-2.191-11.09-2.19-5.135-6.093-8.9-3.901-3.765-9.036-5.956-5.135-2.19-11.159-2.191-5.751 0-10.2 1.78a32.3 32.3 0 0 0-8.216 4.792 70 70 0 0 0-7.188 6.64 907 907 0 0 1-7.257 7.6 275 275 0 0 1-7.188-7.462 67 67 0 0 0-7.257-6.778 35.2 35.2 0 0 0-8.283-4.929q-4.52-1.917-10.132-1.917-5.888 0-11.022 2.19a28.4 28.4 0 0 0-9.037 6.094 28.4 28.4 0 0 0-6.093 9.036q-2.19 5.135-2.26 11.09 0 3.22.754 6.641H.548a20 20 0 0 1-.411-3.286L0 37.245q0-7.736 2.875-14.513t7.942-11.844q5.066-5.065 11.843-7.941T37.174.003q5.682 0 10.132 1.301t8.215 3.56 7.257 5.545a335 335 0 0 1 7.256 7.051 253 253 0 0 1 7.188-7.05q3.423-3.219 7.257-5.478a38.6 38.6 0 0 1 8.284-3.628q4.45-1.37 10.132-1.3 7.668 0 14.445 2.875t11.775 7.94 7.941 11.776Q140 29.305 140 37.04q0 6.64-2.328 12.87-2.327 6.231-6.64 11.433H98.856L91.94 54.36 70.034 76.336l-30.67-30.739z"/></svg>